<svg width="20" height="20" viewBox="0 0 20 20" fill="none" xmlns="http://www.w3.org/2000/svg">
<path d="M3.51645 0C3.90254 0.0991712 4.17907 0.354928 4.45559 0.631564C5.40517 1.59196 6.35997 2.53669 7.30954 3.49187C7.91477 4.10255 7.91999 4.82807 7.31476 5.43354C7.05389 5.69451 6.7878 5.95549 6.52692 6.22168C5.90083 6.86369 5.78083 7.73535 6.20344 8.5235C7.43476 10.8097 9.19827 12.5686 11.4783 13.8004C12.2609 14.2232 13.1375 14.098 13.7792 13.4716C14.0609 13.2002 14.3323 12.9183 14.6088 12.6417C15.1566 12.1041 15.9079 12.0989 16.4505 12.6417C17.5045 13.6856 18.5532 14.74 19.5967 15.7891C20.1236 16.3163 20.1341 17.0522 19.628 17.5898C19.2367 18.0074 18.8297 18.4145 18.4384 18.8269C17.6819 19.615 16.7375 19.9543 15.6731 19.996C14.5096 20.0378 13.4035 19.7455 12.334 19.3123C10.6174 18.6233 9.07826 17.6316 7.64346 16.4729C5.36343 14.6304 3.39645 12.5008 1.86251 9.99019C1.07468 8.70096 0.438145 7.3491 0.140749 5.85632C0.0885748 5.5849 0.0468351 5.30827 -0.00012207 5.03685C-0.00012207 4.71324 -0.00012207 4.38441 -0.00012207 4.0608C0.0155303 3.99816 0.0311827 3.93553 0.0416176 3.87289C0.156402 3.06909 0.42771 2.33313 1.00163 1.74332C1.38772 1.34664 1.79469 0.970833 2.18078 0.579368C2.44165 0.318392 2.71818 0.0887321 3.0834 0C3.22949 0 3.37036 0 3.51645 0Z" fill="black"/>
</svg>
