<svg width="54" height="53" viewBox="0 0 54 53" fill="none" xmlns="http://www.w3.org/2000/svg">
<path fill-rule="evenodd" clip-rule="evenodd" d="M23.7574 22.1967L28.5303 26.9697C28.8232 27.2626 28.8232 27.7375 28.5303 28.0304L23.7574 32.8033C23.4645 33.0962 22.9896 33.0962 22.6967 32.8033C22.4038 32.5104 22.4038 32.0356 22.6967 31.7427L26.1893 28.25H0.5V26.75H26.1893L22.6967 23.2574C22.4038 22.9645 22.4038 22.4896 22.6967 22.1967C22.9896 21.9038 23.4645 21.9038 23.7574 22.1967Z" fill="#D8A65D"/>
<path fill-rule="evenodd" clip-rule="evenodd" d="M43.3102 36.5808C41.2419 39.8462 38.2027 42.3818 34.6195 43.8314C31.0362 45.281 27.0889 45.5718 23.3319 44.663C19.5749 43.7543 16.1969 41.6915 13.6724 38.7645L15.1868 37.4582C17.4385 40.0688 20.4513 41.9086 23.8021 42.7191C27.153 43.5296 30.6735 43.2703 33.8694 41.9774C37.0653 40.6845 39.7759 38.423 41.6206 35.5106C43.4653 32.5982 44.3514 29.1811 44.1545 25.7392C43.9576 22.2974 42.6876 19.0037 40.5228 16.3206C38.358 13.6376 35.4071 11.7 32.0847 10.78C28.7622 9.86 25.235 10.0038 21.9985 11.1912C18.7619 12.3786 15.9786 14.5499 14.0394 17.4003L12.3858 16.2753C14.5601 13.0794 17.6808 10.6449 21.3096 9.31356C24.9385 7.98224 28.8932 7.82102 32.6184 8.85253C36.3436 9.88404 39.6521 12.0565 42.0793 15.0647C44.5065 18.073 45.9305 21.766 46.1513 25.625C46.372 29.4841 45.3785 33.3153 43.3102 36.5808Z" fill="#D8A65D"/>
</svg>
