<svg width="26" height="26" viewBox="0 0 26 26" fill="none" xmlns="http://www.w3.org/2000/svg">
<path d="M13.5619 -0.00012207C14.0279 0.0662843 14.5007 0.119409 14.9601 0.192456C16.8842 0.517848 18.6286 1.2616 20.2132 2.39051C20.6127 2.67605 20.7059 3.14754 20.4463 3.51942C20.1866 3.89129 19.7072 3.97098 19.3011 3.69207C18.076 2.82879 16.7444 2.17137 15.2663 1.87918C10.7588 0.982692 6.98373 2.27762 4.0542 5.80379C2.20326 8.02841 1.45756 10.6581 1.65731 13.5335C1.99687 18.5671 5.85853 22.8105 10.8321 23.6538C16.6778 24.6433 22.184 21.0706 23.5955 15.3331C24.2414 12.7101 23.9351 10.1733 22.7433 7.7495C22.69 7.64325 22.6368 7.54364 22.5835 7.43739C22.3904 7.01903 22.5436 6.54755 22.943 6.35497C23.3292 6.16239 23.7886 6.31512 24.0083 6.71356C24.5609 7.74286 24.9737 8.81864 25.2068 9.96083C25.3266 10.5452 25.3865 11.1362 25.4731 11.7272C25.4864 11.8069 25.4997 11.8866 25.513 11.9663C25.513 12.4644 25.513 12.9624 25.513 13.4604C25.4997 13.5335 25.4798 13.6065 25.4731 13.6729C25.4065 14.1644 25.3666 14.6624 25.2667 15.1472C23.8019 22.6909 15.9787 27.2265 8.68153 24.7695C2.4363 22.671 -1.17236 16.1765 0.345672 9.7749C1.52414 4.84754 5.57889 1.03582 10.5658 0.192456C11.0318 0.112769 11.4979 0.0596437 11.9639 -0.00012207C12.4966 -0.00012207 13.0292 -0.00012207 13.5619 -0.00012207Z" fill="#FBDAA8"/>
<path d="M12.1104 16.7609C12.1104 17.1594 12.1104 17.5113 12.1104 17.8699C12.1104 18.4012 11.7842 18.7598 11.3181 18.7598C10.8387 18.7664 10.5191 18.4145 10.5191 17.8832C10.5191 17.518 10.5191 17.1594 10.5191 16.7609C10.0597 16.7609 9.62031 16.7742 9.18753 16.7543C9.01442 16.7477 8.82134 16.6945 8.67487 16.6082C8.38191 16.4289 8.27538 16.0836 8.36194 15.7582C8.46181 15.4063 8.7481 15.1805 9.13427 15.1738C9.58036 15.1672 10.0331 15.1738 10.4992 15.1738C10.4992 14.8617 10.4992 14.5695 10.4992 14.2441C10.4259 14.2375 10.3527 14.2309 10.2728 14.2309C9.89995 14.2309 9.52709 14.2375 9.15424 14.2309C8.68152 14.2242 8.33531 13.8856 8.33531 13.4406C8.33531 12.9957 8.67487 12.657 9.14759 12.6438C9.50712 12.6371 9.85999 12.6438 10.2195 12.6438C10.3061 12.6438 10.3993 12.6438 10.5191 12.6438C10.5191 12.5242 10.5191 12.4313 10.5191 12.3316C10.5191 10.7578 10.5191 9.18398 10.5191 7.61015C10.5191 7.00585 10.8188 6.70702 11.418 6.70038C12.1171 6.70038 12.8162 6.6871 13.5086 6.70702C15.4994 6.76015 17.1106 8.31406 17.1972 10.2664C17.2904 12.2652 15.8456 13.9785 13.8548 14.2043C13.3888 14.2574 12.9094 14.2242 12.4367 14.2309C12.3368 14.2309 12.2436 14.2309 12.1304 14.2309C12.1304 14.5496 12.1304 14.8418 12.1304 15.1738C12.2169 15.1738 12.3102 15.1738 12.3967 15.1738C13.4487 15.1738 14.5073 15.1738 15.5593 15.1738C16.0453 15.1738 16.3982 15.4926 16.4182 15.9242C16.4381 16.4024 16.0986 16.7609 15.6059 16.7609C14.5406 16.7676 13.482 16.7609 12.4167 16.7609C12.3168 16.7609 12.2303 16.7609 12.1104 16.7609ZM12.1237 12.6305C12.6031 12.6305 13.0492 12.6438 13.4953 12.6305C14.5739 12.5973 15.4195 11.827 15.5859 10.7312C15.739 9.76172 15.1132 8.7457 14.1411 8.41367C13.482 8.18788 12.8028 8.3207 12.1237 8.28749C12.1237 9.74843 12.1237 11.1762 12.1237 12.6305Z" fill="#FBDAA8"/>
<path d="M21.8645 5.7707C21.405 5.7707 20.9124 5.26601 20.9124 4.80116C20.9124 4.36952 21.2652 4.01757 21.698 4.01093C22.1641 4.00429 22.6701 4.52226 22.6634 4.99374C22.6568 5.43202 22.3039 5.7707 21.8645 5.7707Z" fill="#FBDAA8"/>
</svg>
