<svg width="33" height="33" viewBox="0 0 33 33" fill="none" xmlns="http://www.w3.org/2000/svg">
<path d="M16.5 9.625C15.1403 9.625 13.811 10.0282 12.6805 10.7836C11.5499 11.5391 10.6687 12.6128 10.1483 13.8691C9.62798 15.1253 9.49183 16.5076 9.7571 17.8412C10.0224 19.1749 10.6772 20.3999 11.6386 21.3614C12.6001 22.3228 13.8251 22.9776 15.1588 23.2429C16.4924 23.5082 17.8747 23.372 19.1309 22.8517C20.3872 22.3313 21.4609 21.4501 22.2164 20.3195C22.9718 19.189 23.375 17.8597 23.375 16.5C23.375 14.6766 22.6507 12.928 21.3614 11.6386C20.072 10.3493 18.3234 9.625 16.5 9.625ZM16.5 20.625C15.6842 20.625 14.8866 20.3831 14.2083 19.9298C13.5299 19.4766 13.0012 18.8323 12.689 18.0786C12.3768 17.3248 12.2951 16.4954 12.4543 15.6953C12.6134 14.8951 13.0063 14.1601 13.5832 13.5832C14.1601 13.0063 14.8951 12.6134 15.6953 12.4543C16.4954 12.2951 17.3248 12.3768 18.0786 12.689C18.8323 13.0012 19.4766 13.5299 19.9298 14.2083C20.3831 14.8866 20.625 15.6842 20.625 16.5C20.625 17.594 20.1904 18.6432 19.4168 19.4168C18.6432 20.1904 17.594 20.625 16.5 20.625ZM23.375 8.25C23.1031 8.25 22.8372 8.33064 22.6111 8.48173C22.385 8.63282 22.2087 8.84756 22.1047 9.09881C22.0006 9.35006 21.9734 9.62653 22.0264 9.89325C22.0795 10.16 22.2104 10.405 22.4027 10.5973C22.595 10.7896 22.84 10.9205 23.1068 10.9736C23.3735 11.0266 23.6499 10.9994 23.9012 10.8953C24.1524 10.7913 24.3672 10.615 24.5183 10.3889C24.6694 10.1628 24.75 9.89695 24.75 9.625C24.75 9.26033 24.6051 8.91059 24.3473 8.65273C24.0894 8.39487 23.7397 8.25 23.375 8.25ZM30.1675 11.33C30.1447 10.155 29.9215 8.99243 29.5075 7.8925C29.1236 6.89159 28.5334 5.98261 27.7754 5.22458C27.0174 4.46656 26.1084 3.87642 25.1075 3.4925C24.0076 3.07849 22.845 2.85528 21.67 2.8325C20.3363 2.75 19.8962 2.75 16.5 2.75C13.1038 2.75 12.6637 2.75 11.33 2.8325C10.155 2.85528 8.99243 3.07849 7.8925 3.4925C6.89159 3.87642 5.98261 4.46656 5.22458 5.22458C4.46656 5.98261 3.87642 6.89159 3.4925 7.8925C3.07849 8.99243 2.85528 10.155 2.8325 11.33C2.75 12.6775 2.75 13.1175 2.75 16.5C2.75 19.8825 2.75 20.3225 2.8325 21.67C2.85528 22.845 3.07849 24.0076 3.4925 25.1075C3.87642 26.1084 4.46656 27.0174 5.22458 27.7754C5.98261 28.5334 6.89159 29.1236 7.8925 29.5075C8.99243 29.9215 10.155 30.1447 11.33 30.1675C12.705 30.1675 13.1038 30.25 16.5 30.25C19.8962 30.25 20.3363 30.25 21.67 30.1675C22.845 30.1447 24.0076 29.9215 25.1075 29.5075C26.1084 29.1236 27.0174 28.5334 27.7754 27.7754C28.5334 27.0174 29.1236 26.1084 29.5075 25.1075C29.9215 24.0076 30.1447 22.845 30.1675 21.67C30.1675 20.295 30.25 19.8825 30.25 16.5C30.25 13.1175 30.25 12.6775 30.1675 11.33ZM27.4175 21.5462C27.3934 22.4188 27.231 23.2821 26.9363 24.1038C26.6926 24.7532 26.3074 25.3403 25.8088 25.8225C25.3295 26.3214 24.7412 26.7026 24.09 26.9363C23.2664 27.243 22.3974 27.4103 21.5187 27.4313C20.2262 27.4313 19.8275 27.5 16.4862 27.5C13.145 27.5 12.76 27.5 11.4675 27.5C10.5903 27.4774 9.72228 27.3149 8.89625 27.0187C8.24678 26.7751 7.65967 26.3899 7.1775 25.8913C6.67859 25.412 6.29739 24.8237 6.06375 24.1725C5.75823 23.3533 5.59095 22.489 5.56875 21.615C5.56875 20.24 5.56875 19.8962 5.56875 16.5688C5.56875 13.2413 5.56875 12.8425 5.56875 11.5225C5.59245 10.6442 5.75966 9.77561 6.06375 8.95125C6.30102 8.30587 6.68186 7.72285 7.1775 7.24625C7.65679 6.74734 8.24506 6.36614 8.89625 6.1325C9.71986 5.82573 10.5889 5.65844 11.4675 5.6375C12.76 5.5 13.1587 5.5 16.5 5.5C19.8412 5.5 20.24 5.5 21.5325 5.5C22.4154 5.52245 23.2887 5.68967 24.1175 5.995C24.7629 6.23227 25.3459 6.61311 25.8225 7.10875C26.3214 7.58804 26.7026 8.17631 26.9363 8.8275C27.2728 9.66427 27.4635 10.5526 27.5 11.4537C27.5 12.8287 27.5687 13.1725 27.5687 16.5C27.5687 19.8275 27.5 20.2262 27.5 21.5462H27.4175Z" fill="#FBDAA8"/>
</svg>
