<svg width="33" height="33" viewBox="0 0 33 33" fill="none" xmlns="http://www.w3.org/2000/svg">
<path d="M16.4922 2.75C13.7727 2.75 11.1143 3.55642 8.8531 5.06729C6.59193 6.57816 4.82956 8.72562 3.78885 11.2381C2.74815 13.7506 2.47585 16.5153 3.0064 19.1825C3.53694 21.8497 4.8465 24.2997 6.76948 26.2227C8.69245 28.1457 11.1425 29.4553 13.8097 29.9858C16.4769 30.5163 19.2416 30.244 21.7541 29.2033C24.2666 28.1626 26.414 26.4003 27.9249 24.1391C29.4358 21.8779 30.2422 19.2195 30.2422 16.5C30.2423 14.6943 29.8868 12.9062 29.1958 11.2379C28.5049 9.56963 27.4921 8.05378 26.2152 6.77695C24.9384 5.50011 23.4226 4.4873 21.7543 3.79635C20.086 3.1054 18.2979 2.74985 16.4922 2.75V2.75ZM20.864 23.5846C20.8126 23.713 20.7342 23.8288 20.6343 23.9244C20.5345 24.02 20.4153 24.0931 20.2848 24.1389C20.1543 24.1847 20.0156 24.202 19.8779 24.1898C19.7401 24.1775 19.6066 24.136 19.4863 24.068L15.7536 21.1676L13.3579 23.3778C13.3023 23.4188 13.2373 23.4453 13.1688 23.4546C13.1003 23.464 13.0306 23.4559 12.966 23.4313L13.4253 19.3222L13.44 19.3338L13.4494 19.2527C13.4494 19.2527 20.1662 13.1374 20.4399 12.8768C20.7169 12.6169 20.6255 12.5606 20.6255 12.5606C20.6413 12.2436 20.1284 12.5606 20.1284 12.5606L11.2287 18.2861L7.5224 17.0239C7.5224 17.0239 6.95314 16.8197 6.89952 16.3708C6.84314 15.9253 7.54094 15.6833 7.54094 15.6833L22.2768 9.82917C22.2768 9.82917 23.4882 9.28946 23.4882 10.1833L20.864 23.5846Z" fill="#FBDAA8"/>
</svg>
