<svg width="23" height="23" viewBox="0 0 23 23" fill="none" xmlns="http://www.w3.org/2000/svg">
<path d="M11.4935 0.25C9.2685 0.25 7.09342 0.909801 5.24337 2.14597C3.39332 3.38213 1.95138 5.13914 1.09989 7.19481C0.248405 9.25048 0.0256172 11.5125 0.459701 13.6948C0.893785 15.8771 1.96524 17.8816 3.53858 19.455C5.11192 21.0283 7.11648 22.0998 9.29877 22.5338C11.4811 22.9679 13.7431 22.7451 15.7987 21.8936C17.8544 21.0422 19.6114 19.6002 20.8476 17.7502C22.0837 15.9001 22.7435 13.725 22.7435 11.5C22.7437 10.0226 22.4528 8.55963 21.8874 7.19467C21.3221 5.8297 20.4934 4.58946 19.4488 3.54478C18.4041 2.50009 17.1638 1.67143 15.7989 1.10611C14.4339 0.540784 12.9709 0.249877 11.4935 0.25V0.25ZM15.0705 17.2965C15.0284 17.4015 14.9643 17.4963 14.8826 17.5745C14.8008 17.6527 14.7033 17.7126 14.5966 17.75C14.4898 17.7875 14.3763 17.8017 14.2636 17.7916C14.1509 17.7816 14.0417 17.7476 13.9432 17.692L10.8892 15.3189L8.92912 17.1273C8.88364 17.1609 8.83044 17.1825 8.77441 17.1901C8.71838 17.1978 8.66132 17.1912 8.6085 17.1711L8.98424 13.809L8.99627 13.8186L9.00395 13.7522C9.00395 13.7522 14.4996 8.74876 14.7235 8.53558C14.9501 8.32295 14.8753 8.27683 14.8753 8.27683C14.8882 8.01748 14.4686 8.27683 14.4686 8.27683L7.18704 12.9614L4.15461 11.9286C4.15461 11.9286 3.68886 11.7616 3.64498 11.3943C3.59886 11.0298 4.16979 10.8318 4.16979 10.8318L16.2264 6.04205C16.2264 6.04205 17.2175 5.60047 17.2175 6.33175L15.0705 17.2965Z" fill="#0C0C0D"/>
</svg>
