<svg width="26" height="26" viewBox="0 0 26 26" fill="none" xmlns="http://www.w3.org/2000/svg">
<path d="M13.5624 25.4557C13.0298 25.4557 12.4971 25.4557 11.9645 25.4557C11.6516 25.4158 11.3386 25.3826 11.0324 25.3428C8.66875 25.0041 6.5515 24.101 4.70722 22.5869C2.27704 20.5881 0.765666 18.0447 0.199733 14.9502C0.113179 14.4787 0.0665727 14.0006 -7.62939e-06 13.5291C-7.62939e-06 12.9978 -7.62939e-06 12.4666 -7.62939e-06 11.9353C0.0133084 11.8556 0.0332825 11.776 0.0465986 11.6963C0.126495 11.165 0.166443 10.6271 0.27963 10.1025C1.01201 6.76227 2.80302 4.11266 5.63269 2.19351C8.41575 0.30093 11.5117 -0.349852 14.8341 0.174758C17.231 0.553274 19.3482 1.55601 21.1592 3.16304C23.9423 5.63336 25.4137 8.74782 25.5202 12.4666C25.5868 14.8705 25.0009 17.1349 23.7492 19.1935C21.7318 22.5072 18.7956 24.5393 14.9673 25.2631C14.4945 25.3494 14.0285 25.3959 13.5624 25.4557ZM23.8224 12.7388C23.8358 6.6693 18.8622 1.7021 12.7634 1.69546C6.68466 1.69546 1.72442 6.62946 1.69779 12.7056C1.67116 18.7685 6.63805 23.7424 12.7435 23.7623C18.8289 23.7822 23.8091 18.8217 23.8224 12.7388Z" fill="#FBDAA8"/>
<path d="M11.9112 9.33235C11.9112 8.20344 11.9112 7.08117 11.9112 5.95226C11.9112 5.5007 12.2242 5.16203 12.6636 5.1089C13.0764 5.05578 13.4759 5.32804 13.5757 5.7464C13.6024 5.85929 13.6024 5.97882 13.6024 6.09172C13.6024 8.09055 13.609 10.0827 13.5957 12.0816C13.5957 12.2675 13.6556 12.3804 13.8021 12.4933C15.0405 13.4695 16.2656 14.4589 17.504 15.4417C17.7903 15.6742 17.9101 15.9663 17.8369 16.3183C17.777 16.6238 17.5772 16.8363 17.2776 16.9359C16.9514 17.0421 16.6651 16.9492 16.3988 16.7367C15.6331 16.1191 14.8541 15.5015 14.0884 14.8906C13.4892 14.4124 12.8966 13.9343 12.2974 13.4628C12.0311 13.2503 11.9046 12.9913 11.9046 12.646C11.9179 11.5304 11.9112 10.4281 11.9112 9.33235Z" fill="#FBDAA8"/>
</svg>
