<svg width="42" height="42" viewBox="0 0 42 42" fill="none" xmlns="http://www.w3.org/2000/svg">
<path fill-rule="evenodd" clip-rule="evenodd" d="M21.031 3.50452C17.1303 3.41494 13.3159 4.65906 10.2181 7.03121C7.1204 9.40337 4.92483 12.7615 3.99436 16.5507C3.06389 20.3398 3.45421 24.333 5.10082 27.8702C6.74743 31.4074 9.55174 34.2768 13.0502 36.0042C16.5487 37.7316 20.5318 38.2135 24.3413 37.3703C28.1508 36.527 31.5585 34.4091 34.0012 31.3667C36.4438 28.3242 37.7752 24.5393 37.7752 20.6376H41.2752C41.2752 25.3362 39.6719 29.894 36.7304 33.5579C33.7889 37.2217 29.6852 39.7721 25.0977 40.7875C20.5103 41.803 15.7136 41.2227 11.5007 39.1425C7.2877 37.0623 3.91067 33.6069 1.92778 29.3473C-0.0551152 25.0876 -0.525159 20.2789 0.595345 15.716C1.71585 11.153 4.35981 7.10901 8.09021 4.25239C11.8206 1.39577 16.4141 -0.102428 21.1114 0.00544748C25.7871 0.112829 30.2871 1.80521 33.8744 4.8042L37.3361 1.98365L36.6626 10.1316L28.5466 9.14528L31.1003 7.06452C28.2139 4.83949 24.6872 3.58849 21.031 3.50452ZM19.1175 23.9576H15.0575C16.5509 22.2243 17.5575 20.8843 18.0775 19.9376C18.5975 18.991 18.8575 18.091 18.8575 17.2376C18.8575 16.4376 18.6709 15.7176 18.2975 15.0776C17.9242 14.4376 17.3975 13.9443 16.7175 13.5976C16.0375 13.2376 15.2709 13.0576 14.4175 13.0576C13.0975 13.0576 12.0375 13.451 11.2375 14.2376C10.4375 15.0243 10.0375 16.0376 10.0375 17.2776V17.5576H12.8975V17.3176C12.8975 16.8376 13.0375 16.4576 13.3175 16.1776C13.6109 15.8843 13.9909 15.7376 14.4575 15.7376C14.9109 15.7376 15.2775 15.8776 15.5575 16.1576C15.8375 16.4376 15.9775 16.811 15.9775 17.2776C15.9775 17.7576 15.8309 18.271 15.5375 18.8176C15.2575 19.3643 14.7042 20.151 13.8775 21.1776C13.0642 22.191 11.7042 23.8043 9.79753 26.0176V26.6376H19.1175V23.9576ZM30.6546 24.0776V21.5976H29.4946V18.4176H27.3546L26.8946 21.5976H24.0946L27.6346 13.3376H24.8146L20.4346 23.5776V24.0776H26.8146V26.6376H29.4946V24.0776H30.6546Z" fill="#D8A65D"/>
</svg>
