<svg width="23" height="22" viewBox="0 0 23 22" fill="none" xmlns="http://www.w3.org/2000/svg">
<path d="M22.9999 5.005C22.987 4.53043 22.9486 4.05681 22.8849 3.586C22.799 3.17364 22.6559 2.7741 22.4594 2.398C22.2538 1.99002 21.9778 1.61813 21.6429 1.298C21.3049 0.981425 20.9168 0.71785 20.4929 0.517C20.0992 0.332689 19.6815 0.199511 19.2509 0.121C18.7634 0.0511493 18.2717 0.0107361 17.7789 0H5.23238C4.73624 0.01236 4.24108 0.0490749 3.74888 0.11C3.31777 0.192135 2.90007 0.329014 2.50688 0.517C2.08035 0.71361 1.69156 0.97765 1.35688 1.298C1.02591 1.6213 0.750357 1.99253 0.540378 2.398C0.347689 2.7746 0.208457 3.17413 0.126378 3.586C0.0533522 4.05233 0.011102 4.52259 -0.00012207 4.994C-0.00012207 5.203 -0.00012207 5.5 -0.00012207 5.588V16.412C-0.00012207 16.533 -0.00012207 16.797 -0.00012207 16.995C0.0127998 17.4696 0.0511835 17.9432 0.114878 18.414C0.200747 18.8264 0.343847 19.2259 0.540378 19.602C0.745925 20.01 1.02197 20.3819 1.35688 20.702C1.69487 21.0186 2.08298 21.2822 2.50688 21.483C2.9006 21.6673 3.31829 21.8005 3.74888 21.879C4.2364 21.9489 4.72804 21.9893 5.22088 22H17.7674C18.2635 21.9876 18.7587 21.9509 19.2509 21.89C19.682 21.8079 20.0997 21.671 20.4929 21.483C20.9194 21.2864 21.3082 21.0224 21.6429 20.702C21.9738 20.3787 22.2494 20.0075 22.4594 19.602C22.6521 19.2254 22.7913 18.8259 22.8734 18.414C22.9464 17.9477 22.9887 17.4774 22.9999 17.006C22.9999 16.797 22.9999 16.533 22.9999 16.412V5.588C22.9999 5.5 22.9999 5.203 22.9999 5.005ZM11.7644 18.7C10.3833 18.6935 9.02638 18.3529 7.81988 17.71L3.44988 18.81L4.59988 14.718C3.85826 13.5261 3.46136 12.167 3.44988 10.78C3.45446 9.22122 3.94116 7.69859 4.84869 6.40388C5.75622 5.10917 7.04399 4.10028 8.54982 3.50429C10.0556 2.90829 11.7122 2.75184 13.3108 3.05463C14.9094 3.35743 16.3785 4.10593 17.5333 5.20586C18.688 6.3058 19.4766 7.70798 19.7998 9.2358C20.123 10.7636 19.9664 12.3488 19.3495 13.7916C18.7327 15.2344 17.6833 16.4704 16.3336 17.3438C14.9838 18.2173 13.394 18.6891 11.7644 18.7ZM11.7644 4.257C10.5452 4.27035 9.35141 4.59248 8.30467 5.19061C7.25793 5.78874 6.39558 6.6415 5.80542 7.66207C5.21526 8.68264 4.91837 9.83457 4.94497 11.0006C4.97158 12.1666 5.32073 13.305 5.95688 14.3L6.11788 14.553L5.42788 16.962L8.04988 16.28L8.30288 16.423C9.34889 17.0123 10.5389 17.3273 11.7529 17.336C13.5829 17.336 15.3379 16.6406 16.6319 15.4029C17.9259 14.1652 18.6529 12.4864 18.6529 10.736C18.6529 8.98557 17.9259 7.30684 16.6319 6.0691C15.3379 4.83136 13.5829 4.136 11.7529 4.136L11.7644 4.257ZM15.7894 13.629C15.6388 13.8693 15.4371 14.0767 15.1974 14.2378C14.9577 14.3988 14.6853 14.51 14.3979 14.564C13.9684 14.6391 13.5262 14.6127 13.1099 14.487C12.7181 14.3698 12.3341 14.2303 11.9599 14.069C10.5382 13.3866 9.32573 12.3633 8.44088 11.099C7.96004 10.5132 7.66829 9.806 7.60138 9.064C7.59453 8.75577 7.65549 8.4496 7.7803 8.16535C7.90511 7.8811 8.09099 7.62512 8.32588 7.414C8.39507 7.33897 8.47995 7.27866 8.57503 7.23697C8.67012 7.19529 8.77329 7.17315 8.87788 7.172H9.19988C9.32638 7.172 9.49888 7.172 9.65988 7.513C9.82088 7.854 10.2464 8.877 10.3039 8.976C10.3321 9.02877 10.3469 9.08721 10.3469 9.1465C10.3469 9.20579 10.3321 9.26423 10.3039 9.317C10.253 9.43653 10.1832 9.54784 10.0969 9.647C9.99338 9.768 9.87838 9.911 9.78638 9.999C9.69438 10.087 9.57938 10.197 9.69438 10.395C10.0073 10.9001 10.3946 11.3595 10.8444 11.759C11.3342 12.173 11.8942 12.5041 12.5004 12.738C12.7074 12.837 12.8339 12.826 12.9489 12.738C13.0639 12.65 13.4664 12.166 13.6044 11.968C13.7424 11.77 13.8804 11.803 14.0644 11.869C14.2484 11.935 15.2719 12.408 15.4789 12.507C15.6859 12.606 15.8124 12.65 15.8699 12.738C15.9198 13.0259 15.892 13.3212 15.7894 13.596V13.629Z" fill="#0C0C0D"/>
</svg>
