<svg width="174" height="57" viewBox="0 0 174 57" fill="none" xmlns="http://www.w3.org/2000/svg">
<g clip-path="url(#clip0_11_223)">
<path d="M35.9057 16.054C35.9057 30.3305 27.3373 32.1079 17.9528 32.1079C8.5684 32.1079 0 30.2732 0 16.054C0 1.72007 8.5684 0 17.9528 0C27.3373 0 35.9057 1.72007 35.9057 16.054ZM25.8801 16.054C25.8801 8.42833 21.7999 7.16695 17.9528 7.16695C14.1058 7.16695 10.0256 8.37099 10.0256 16.054C10.0256 23.6796 14.1058 24.941 17.9528 24.941C21.7999 24.8836 25.8801 23.6223 25.8801 16.054Z" fill="white"/>
<path d="M71.0536 8.14164V11.9258C71.0536 13.4165 70.7038 14.9072 69.8878 16.1686C68.4889 18.3474 66.0408 19.6088 63.4761 19.6088H49.3703V25.8583C49.3703 28.8971 46.8639 31.3626 43.7746 31.3626H39.3447V0.688019H63.4761C64.2338 0.688019 65.0499 0.80269 65.7493 1.03203C68.8969 2.00674 71.0536 4.87352 71.0536 8.14164ZM59.2793 12.4418C59.2793 12.4418 61.028 12.4418 61.028 10.1484C61.028 7.85497 59.2793 7.85497 59.2793 7.85497H49.3703V12.4418H59.2793Z" fill="white"/>
<path d="M173 0.688019V31.4199H162.974V16.7993L157.379 28.6678L157.262 28.8971C156.563 30.3879 155.047 31.3626 153.357 31.3626C151.666 31.3626 150.151 30.3879 149.451 28.8971L149.335 28.6678L143.739 16.8567V31.4199H133.714V0.688019H140.125C142.573 0.688019 144.847 2.12141 145.896 4.30016L153.415 20.1821L160.934 4.30016C161.984 2.12141 164.198 0.688019 166.705 0.688019H173Z" fill="white"/>
<path d="M104.045 19.7234C104.628 19.8381 105.211 20.0674 105.793 20.1248C106.085 20.1821 106.435 20.2395 106.726 20.2968C107.95 20.8128 107.717 22.4755 109.232 23.0489C110.34 23.4502 111.331 23.1062 111.331 23.1062L111.273 22.9916C111.331 23.1636 111.447 23.2782 111.506 23.4502C111.622 23.6796 112.263 23.6223 112.672 23.6796C112.788 22.5329 113.371 20.9275 112.846 20.2395C112.089 19.3221 110.515 18.6914 109.232 18.6341C107.542 18.5194 105.793 19.0354 104.103 19.3221C104.103 19.4368 104.045 19.6088 104.045 19.7234ZM106.726 20.2968C106.959 20.3541 107.251 20.4115 107.484 20.4688L106.726 20.2968ZM110.981 22.5329C110.806 22.6475 109.932 23.0489 109.582 22.5329C108.883 21.5582 107.542 20.4115 107.542 20.4115C108.883 20.8128 110.165 21.3288 110.981 22.5329Z" fill="white"/>
<path d="M110.515 25.801C108.824 24.4823 107.251 23.2782 105.677 22.0742C106.668 24.941 109.232 27.5211 110.515 25.801Z" fill="white"/>
<path d="M110.282 14.7926C110.981 14.6779 111.681 14.5059 112.38 14.3339C112.438 14.1619 112.497 14.0472 112.613 13.8752C112.089 13.6458 111.564 13.2445 110.981 13.1872C110.573 13.1872 110.107 13.5885 109.699 13.8752C109.582 13.9899 109.524 14.3912 109.641 14.5632C109.757 14.7352 110.107 14.8499 110.282 14.7926Z" fill="white"/>
<path d="M105.385 0.688019H93.7278C93.7278 0.688019 93.7278 14.0472 94.1941 15.3659C96.1176 14.0472 98.1577 12.9005 100.081 11.5818C104.395 8.65767 105.852 5.27487 105.385 0.688019Z" fill="white"/>
<path d="M123.455 0.688012C123.455 1.54805 123.455 2.29341 123.513 2.69476C123.63 4.07081 123.338 5.44686 123.163 7.1096C120.249 4.01347 118.675 4.01348 116.635 6.99493C115.411 8.71499 114.886 10.7791 116.111 12.7858C116.927 14.1045 116.111 14.7926 115.353 15.4806C115.061 15.7673 114.42 15.6526 114.129 15.8819C113.779 16.1686 113.721 16.6846 113.488 17.1433C113.896 17.086 114.304 16.9713 114.712 16.8566C114.828 16.7993 114.945 16.742 115.353 16.57C115.178 17.43 115.061 18.0607 114.945 18.7487C116.344 19.2647 116.635 18.4047 116.868 17.3727C117.043 16.2833 117.335 15.2512 117.626 13.7605C118.325 14.5059 118.967 14.8499 119.025 15.2512C119.375 18.5194 119.083 21.6728 116.344 23.9663C113.488 26.317 110.515 28.4958 107.484 30.7319C105.677 32.0506 103.054 31.8786 101.247 30.4452C100.548 29.9292 99.7898 29.4131 99.0903 28.8971C100.956 31.4199 103.462 33.2546 106.843 33.656C122.581 35.8921 127.652 23.7943 128.759 13.6459C129.225 10.4924 129.342 0.630676 129.342 0.630676H123.455V0.688012ZM120.016 12.9578C118.792 12.2125 117.801 11.2378 116.927 10.5497C116.985 8.0843 117.917 6.53624 119.025 6.59358C120.132 6.59358 122.464 9.17368 122.406 10.3777C122.406 11.1231 120.54 13.2445 120.016 12.9578Z" fill="white"/>
<path d="M74.0846 0.688019V7.22428V8.77234V25.801L75.0172 25.1703C76.4744 24.1956 78.0482 23.2782 79.5054 22.3035C82.653 20.1248 84.0519 17.6593 84.1102 14.5059V0.745354H74.0846V0.688019Z" fill="white"/>
<path d="M79.7968 24.8836C78.223 25.9157 76.591 26.8904 75.0755 27.9224L74.0846 28.6105V31.4199H84.1102V20.4115C83.4107 22.3035 82.0118 23.3929 79.7968 24.8836Z" fill="white"/>
</g>
<g opacity="0.8">
<path d="M10.944 56H9.876L8.784 49.436L5.88 55.784H5.604L2.7 49.448L1.608 56H0.528L1.944 47.6H2.952L5.736 53.768L8.52 47.6H9.552L10.944 56Z" fill="white"/>
<path d="M19.5146 47.6H20.6426L18.0506 53.408C17.6026 54.432 17.1626 55.124 16.7306 55.484C16.2986 55.844 15.7026 56.024 14.9426 56.024H14.5466V55.04H15.0266C15.4826 55.04 15.8306 54.948 16.0706 54.764C16.3106 54.572 16.5706 54.188 16.8506 53.612L13.6466 47.6H14.8586L17.4026 52.388L19.5146 47.6Z" fill="white"/>
<path d="M32.9848 56L30.1288 52.148H29.1088V56H28.0528V52.148H27.0328L24.1768 56H22.8568L26.0968 51.62L23.1688 47.6H24.4528L27.0328 51.164H28.0528V47.6H29.1088V51.164H30.1288L32.7088 47.6H33.9928L31.0648 51.62L34.3168 56H32.9848Z" fill="white"/>
<path d="M40.9027 56.132C39.6547 56.132 38.6227 55.724 37.8067 54.908C36.9987 54.092 36.5947 53.056 36.5947 51.8C36.5947 50.544 36.9987 49.508 37.8067 48.692C38.6227 47.876 39.6547 47.468 40.9027 47.468C41.5427 47.468 42.1347 47.592 42.6787 47.84C43.2307 48.08 43.6947 48.424 44.0707 48.872C44.4547 49.32 44.7227 49.844 44.8747 50.444H43.8068C43.5828 49.836 43.2148 49.36 42.7028 49.016C42.1908 48.672 41.5907 48.5 40.9027 48.5C39.9587 48.5 39.1827 48.812 38.5747 49.436C37.9747 50.052 37.6748 50.844 37.6748 51.812C37.6748 52.772 37.9747 53.56 38.5747 54.176C39.1827 54.792 39.9587 55.1 40.9027 55.1C41.6067 55.1 42.2188 54.92 42.7388 54.56C43.2588 54.192 43.6268 53.684 43.8428 53.036H44.9227C44.6827 53.988 44.1987 54.744 43.4707 55.304C42.7507 55.856 41.8947 56.132 40.9027 56.132Z" fill="white"/>
<path d="M53.7112 56L50.7592 52.148H49.6312V56H48.5872V47.6H49.6312V51.164H50.7472L53.4352 47.6H54.7792L51.7072 51.644L55.0552 56H53.7112Z" fill="white"/>
<path d="M64.8662 54.908C64.0342 55.732 62.9822 56.144 61.7102 56.144C60.4462 56.144 59.3982 55.732 58.5662 54.908C57.7342 54.084 57.3182 53.052 57.3182 51.812C57.3182 50.564 57.7342 49.528 58.5662 48.704C59.3982 47.872 60.4462 47.456 61.7102 47.456C62.9822 47.456 64.0342 47.868 64.8662 48.692C65.6982 49.516 66.1142 50.552 66.1142 51.8C66.1142 53.048 65.6982 54.084 64.8662 54.908ZM59.3342 54.164C59.9662 54.796 60.7582 55.112 61.7102 55.112C62.6702 55.112 63.4622 54.8 64.0862 54.176C64.7182 53.544 65.0342 52.752 65.0342 51.8C65.0342 50.848 64.7182 50.06 64.0862 49.436C63.4622 48.804 62.6702 48.488 61.7102 48.488C60.7582 48.488 59.9662 48.804 59.3342 49.436C58.7102 50.068 58.3982 50.856 58.3982 51.8C58.3982 52.744 58.7102 53.532 59.3342 54.164Z" fill="white"/>
<path d="M71.4674 46.244V45.452H74.8754V46.244H71.4674ZM75.7394 47.6H76.5074V56H75.4514V49.604L70.6634 56H69.9434V47.6H70.9874V53.948L75.7394 47.6Z" fill="white"/>
<path d="M88.6394 56.108C87.7114 56.108 86.9634 55.864 86.3954 55.376C85.8274 54.888 85.5434 54.232 85.5434 53.408H86.6114C86.6114 53.92 86.7994 54.328 87.1754 54.632C87.5514 54.928 88.0354 55.076 88.6274 55.076C88.9794 55.076 89.2954 55.02 89.5754 54.908C89.8634 54.788 90.0914 54.616 90.2594 54.392C90.4354 54.168 90.5234 53.912 90.5234 53.624C90.5234 53.488 90.4994 53.364 90.4514 53.252C90.4114 53.132 90.3594 53.032 90.2954 52.952C90.2394 52.872 90.1514 52.796 90.0314 52.724C89.9114 52.644 89.8074 52.584 89.7194 52.544C89.6314 52.496 89.4954 52.444 89.3114 52.388C89.1354 52.332 88.9954 52.292 88.8914 52.268C88.7954 52.244 88.6434 52.208 88.4354 52.16C88.1874 52.096 87.9954 52.048 87.8594 52.016C87.7314 51.984 87.5554 51.932 87.3314 51.86C87.1074 51.78 86.9314 51.708 86.8034 51.644C86.6834 51.572 86.5394 51.476 86.3714 51.356C86.2114 51.236 86.0874 51.108 85.9994 50.972C85.9194 50.836 85.8474 50.672 85.7834 50.48C85.7274 50.28 85.6994 50.064 85.6994 49.832C85.6994 49.112 85.9554 48.544 86.4674 48.128C86.9874 47.704 87.6834 47.492 88.5554 47.492C89.4274 47.492 90.1114 47.716 90.6074 48.164C91.1114 48.612 91.3634 49.216 91.3634 49.976H90.3194C90.3194 49.52 90.1514 49.16 89.8154 48.896C89.4874 48.632 89.0634 48.5 88.5434 48.5C88.0154 48.5 87.5834 48.616 87.2474 48.848C86.9194 49.08 86.7554 49.392 86.7554 49.784C86.7554 49.912 86.7754 50.032 86.8154 50.144C86.8554 50.248 86.9034 50.34 86.9594 50.42C87.0234 50.5 87.1114 50.576 87.2234 50.648C87.3434 50.72 87.4474 50.78 87.5354 50.828C87.6234 50.868 87.7514 50.916 87.9194 50.972C88.0954 51.02 88.2354 51.056 88.3394 51.08C88.4434 51.104 88.5954 51.144 88.7954 51.2C88.9954 51.248 89.1434 51.284 89.2394 51.308C89.3434 51.332 89.4874 51.372 89.6714 51.428C89.8634 51.484 90.0114 51.536 90.1154 51.584C90.2194 51.624 90.3474 51.684 90.4994 51.764C90.6594 51.836 90.7834 51.912 90.8714 51.992C90.9594 52.072 91.0554 52.168 91.1594 52.28C91.2714 52.392 91.3514 52.512 91.3994 52.64C91.4554 52.768 91.5034 52.916 91.5434 53.084C91.5834 53.252 91.6034 53.428 91.6034 53.612C91.6034 54.388 91.3234 55 90.7634 55.448C90.2114 55.888 89.5034 56.108 88.6394 56.108Z" fill="white"/>
<path d="M98.4156 47.6C99.2076 47.6 99.8676 47.856 100.396 48.368C100.932 48.88 101.2 49.52 101.2 50.288C101.2 51.056 100.932 51.696 100.396 52.208C99.8676 52.72 99.2076 52.976 98.4156 52.976H96.4476V56H95.4036V47.6H98.4156ZM98.3556 51.956C98.8676 51.956 99.2876 51.8 99.6156 51.488C99.9516 51.168 100.12 50.768 100.12 50.288C100.12 49.808 99.9516 49.412 99.6156 49.1C99.2876 48.78 98.8676 48.62 98.3556 48.62H96.4476V51.956H98.3556Z" fill="white"/>
<path d="M110.122 56L109.282 53.984H105.25L104.422 56H103.306L106.738 47.6H107.722L111.262 56H110.122ZM107.254 49.052L105.646 53.024H108.886L107.254 49.052Z" fill="white"/>
<path d="M114.092 53.144V52.16H117.896V53.144H114.092Z" fill="white"/>
<path d="M125.709 56.132C124.461 56.132 123.429 55.724 122.613 54.908C121.805 54.092 121.401 53.056 121.401 51.8C121.401 50.544 121.805 49.508 122.613 48.692C123.429 47.876 124.461 47.468 125.709 47.468C126.349 47.468 126.941 47.592 127.485 47.84C128.037 48.08 128.501 48.424 128.877 48.872C129.261 49.32 129.529 49.844 129.681 50.444H128.613C128.389 49.836 128.021 49.36 127.509 49.016C126.997 48.672 126.397 48.5 125.709 48.5C124.765 48.5 123.989 48.812 123.381 49.436C122.781 50.052 122.481 50.844 122.481 51.812C122.481 52.772 122.781 53.56 123.381 54.176C123.989 54.792 124.765 55.1 125.709 55.1C126.413 55.1 127.025 54.92 127.545 54.56C128.065 54.192 128.433 53.684 128.649 53.036H129.729C129.489 53.988 129.005 54.744 128.277 55.304C127.557 55.856 126.701 56.132 125.709 56.132Z" fill="white"/>
<path d="M139.062 56L138.222 53.984H134.19L133.362 56H132.246L135.678 47.6H136.662L140.202 56H139.062ZM136.194 49.052L134.586 53.024H137.826L136.194 49.052Z" fill="white"/>
<path d="M145.029 47.6H150.213V56H149.169V48.584H145.989L145.593 53.348C145.441 55.124 144.597 56.012 143.061 56.012H142.713V54.968H143.049C143.929 54.968 144.417 54.44 144.513 53.384L145.029 47.6Z" fill="white"/>
<path d="M161.593 54.908C160.761 55.732 159.709 56.144 158.437 56.144C157.173 56.144 156.125 55.732 155.293 54.908C154.461 54.084 154.045 53.052 154.045 51.812C154.045 50.564 154.461 49.528 155.293 48.704C156.125 47.872 157.173 47.456 158.437 47.456C159.709 47.456 160.761 47.868 161.593 48.692C162.425 49.516 162.841 50.552 162.841 51.8C162.841 53.048 162.425 54.084 161.593 54.908ZM156.061 54.164C156.693 54.796 157.485 55.112 158.437 55.112C159.397 55.112 160.189 54.8 160.813 54.176C161.445 53.544 161.761 52.752 161.761 51.8C161.761 50.848 161.445 50.06 160.813 49.436C160.189 48.804 159.397 48.488 158.437 48.488C157.485 48.488 156.693 48.804 156.061 49.436C155.437 50.068 155.125 50.856 155.125 51.8C155.125 52.744 155.437 53.532 156.061 54.164Z" fill="white"/>
<path d="M172.07 47.6H173.114V56H172.07V52.184H167.714V56H166.67V47.6H167.714V51.176H172.07V47.6Z" fill="white"/>
</g>
<defs>
<clipPath id="clip0_11_223">
<rect width="173" height="34" fill="white"/>
</clipPath>
</defs>
</svg>
