<?xml version="1.0" encoding="utf-8"?><svg viewBox="0 0 502.66 502.66" xmlns="http://www.w3.org/2000/svg" xmlns:xlink="http://www.w3.org/1999/xlink"><style>:root>svg{display:none}:root>svg:target{display:block}</style><svg viewBox="0 0 41 41" id="18plus-icon" xmlns="http://www.w3.org/2000/svg"><path d="M19.305 41c-.78-.11-1.562-.187-2.327-.312-4.717-.843-8.669-3.06-11.84-6.633C2.235 30.777.548 26.954.11 22.599-.42 17.23.937 12.376 4.217 8.085 7.294 4.058 11.34 1.514 16.291.437c3.155-.687 6.31-.577 9.434.234.062.016.124.047.203.078v3.683c-6.53-1.857-12.37-.67-17.275 4.058-3.483 3.371-5.154 7.585-5.045 12.44.219 9.613 8.528 17.09 17.977 16.418 5.498-.39 9.856-2.919 12.933-7.46 3.077-4.542 3.608-9.52 2.03-14.78h3.812c.187 1.201.374 2.434.562 3.652.031.187.047.359.078.546v2.404l-.094.858c-.484 4.417-2.17 8.303-5.154 11.596-3.155 3.496-7.075 5.681-11.73 6.508-.765.14-1.546.219-2.327.312-.797.016-1.593.016-2.39.016z"/><path d="M21.68 20.055c-.438-.468-.953-.874-1.297-1.404-1.125-1.717-.344-3.965 1.64-4.745 1.812-.718 3.64-.75 5.466-.078 1.36.5 2.218 1.436 2.359 2.903.14 1.373-.422 2.434-1.593 3.184-.016.015-.031.03-.094.078.234.14.453.25.672.39 2.483 1.654 2.327 5.041-.313 6.446-1.405.749-2.92.858-4.482.749-.937-.063-1.843-.25-2.702-.671-1.36-.687-2.203-1.748-2.187-3.309.016-1.592.859-2.7 2.25-3.418.108-.047.202-.094.28-.125.032-.015.047-.047 0 0zm3.201 5.057c.438-.094.86-.125 1.25-.265.75-.235 1.124-.812 1.14-1.608.015-.765-.375-1.373-1.11-1.623a3.757 3.757 0 00-2.514-.016c-.75.25-1.14.827-1.14 1.608 0 .78.375 1.373 1.125 1.623.39.156.827.203 1.25.28zm.016-6.227c.297-.047.609-.078.906-.157.703-.202 1.077-.702 1.093-1.404.016-.718-.36-1.249-1.047-1.483-.624-.218-1.265-.203-1.89-.015-.733.234-1.108.749-1.077 1.53.015.717.406 1.2 1.14 1.388.281.078.578.094.875.14zm-14.479-2.513v-2.84h6.06v13.92H12.98v-11.08h-2.561zm25.068-8.053v3.917h-2.795V8.35h-3.905V5.525h3.889V1.607h2.827V5.51h3.905v2.825c-1.312-.015-2.577-.015-3.92-.015z"/></svg><svg viewBox="0 0 20 20" id="call-icon" xmlns="http://www.w3.org/2000/svg"><path d="M3.516 0c.387.1.663.355.94.632.95.96 1.904 1.905 2.854 2.86.605.61.61 1.336.005 1.942-.261.26-.527.521-.788.788-.626.642-.746 1.513-.324 2.301a12.752 12.752 0 005.275 5.277c.783.423 1.66.298 2.301-.328.282-.272.553-.554.83-.83.548-.538 1.299-.543 1.842 0a666.703 666.703 0 013.146 3.147c.527.527.537 1.263.031 1.8-.391.418-.798.826-1.19 1.238-.756.788-1.7 1.127-2.765 1.169-1.163.042-2.27-.25-3.339-.684-1.717-.689-3.256-1.68-4.69-2.84-2.28-1.842-4.248-3.971-5.781-6.482C1.075 8.701.438 7.35.14 5.856c-.051-.271-.093-.548-.14-.82v-.975c.016-.063.031-.125.042-.188.114-.804.386-1.54.96-2.13.386-.396.793-.772 1.179-1.164.26-.26.537-.49.902-.579h.433z"/></svg><svg viewBox="0 0 54 53" id="details-arrow" xmlns="http://www.w3.org/2000/svg"><path fill-rule="evenodd" clip-rule="evenodd" d="M23.757 22.197l4.773 4.773a.75.75 0 010 1.06l-4.773 4.773a.75.75 0 01-1.06-1.06l3.492-3.493H.5v-1.5h25.69l-3.493-3.493a.75.75 0 011.06-1.06z"/><path fill-rule="evenodd" clip-rule="evenodd" d="M43.31 36.58a18.5 18.5 0 01-29.638 2.184l1.515-1.306A16.5 16.5 0 1014.039 17.4l-1.653-1.125A18.5 18.5 0 0143.31 36.581z"/></svg><svg viewBox="0 0 52 44" id="hear-icon" xmlns="http://www.w3.org/2000/svg"><path d="M1.095 11.55v-.008l.002-.008c.216-2.09.787-3.99 1.953-5.676 1.682-2.426 4.055-3.856 7.007-4.464 2.398-.495 4.713-.586 6.982.103 1.835.557 3.474 1.528 5.049 2.718a72.615 72.615 0 012.185 1.737c.364.298.73.597 1.103.896l.627.502.625-.504.904-.73c.81-.657 1.612-1.309 2.44-1.944l.005-.004c3.481-2.712 7.324-3.753 11.686-2.85 3.096.651 5.569 2.033 7.3 4.55l.002.002c1.093 1.579 1.652 3.373 1.905 5.35l.001.005c.333 2.488.025 4.853-.981 7.153-1.242 2.818-3.158 5.2-5.428 7.367h-.001c-4.192 4.01-8.403 8.006-12.612 12-1.657 1.573-3.315 3.145-4.97 4.718l-.002.001c-.5.478-.76.536-.872.536-.113 0-.37-.056-.87-.526A5324.437 5324.437 0 017.823 25.985a41.209 41.209 0 01-2.672-2.82C3.208 20.9 1.832 18.364 1.21 15.492c-.07-.37-.14-.736-.209-1.111V12.16c.033-.188.07-.398.095-.611z"/></svg><svg viewBox="0 0 502.664 502.664" id="icon" xmlns="http://www.w3.org/2000/svg"><path d="M153.821 358.226L0 274.337v-46.463l153.821-83.414v54.574L46.636 250.523l107.185 53.431v54.272zm26.273 29.358L282.103 115.08h32.227L212.084 387.584h-31.99zm168.749-29.358v-54.272l107.164-52.999-107.164-52.59v-53.927l153.821 83.522v46.183l-153.821 84.083z"/></svg><svg viewBox="0 0 26 26" id="price-icon" xmlns="http://www.w3.org/2000/svg"><path d="M13.562 0c.466.066.939.12 1.398.192a12.56 12.56 0 015.253 2.199c.4.285.493.757.233 1.128-.26.372-.739.452-1.145.173-1.225-.863-2.557-1.52-4.035-1.813-4.507-.896-8.282.399-11.212 3.925-1.85 2.224-2.596 4.854-2.397 7.73.34 5.033 4.202 9.277 9.175 10.12 5.846.99 11.352-2.583 12.764-8.32.645-2.624.34-5.16-.853-7.584-.053-.107-.106-.206-.16-.313-.193-.418-.04-.89.36-1.082.386-.193.846-.04 1.065.359a11.85 11.85 0 011.199 3.247c.12.584.18 1.175.266 1.766l.04.24v1.493c-.013.073-.033.146-.04.213-.066.491-.106.99-.206 1.474-1.465 7.544-9.288 12.08-16.585 9.623-6.246-2.1-9.854-8.593-8.336-14.995 1.178-4.927 5.233-8.74 10.22-9.583.466-.08.932-.132 1.398-.192h1.598z"/><path d="M12.11 16.76v1.11c0 .531-.326.89-.792.89-.48.006-.799-.346-.799-.877v-1.122c-.46 0-.899.013-1.331-.007a1.144 1.144 0 01-.513-.146c-.293-.18-.4-.524-.313-.85a.782.782 0 01.772-.584c.446-.007.9 0 1.365 0v-.93c-.073-.006-.146-.013-.226-.013-.373 0-.746.007-1.119 0-.472-.007-.819-.345-.819-.79 0-.445.34-.784.813-.797.36-.007.712 0 1.072 0h.3V7.61c0-.604.299-.903.898-.91.7 0 1.398-.013 2.09.007 1.991.053 3.603 1.607 3.69 3.56a3.763 3.763 0 01-3.343 3.937c-.466.053-.946.02-1.418.027h-.307v.943h3.429c.486 0 .84.319.86.75.02.478-.32.837-.813.837-1.065.007-2.124 0-3.19 0h-.306zm.014-4.13c.48 0 .925.014 1.371 0 1.079-.033 1.925-.803 2.09-1.899.154-.97-.472-1.985-1.444-2.317-.659-.226-1.338-.093-2.017-.127v4.343zm9.74-6.86c-.459 0-.952-.504-.952-.969 0-.431.353-.783.786-.79.466-.007.972.511.965.983a.788.788 0 01-.799.777z"/></svg><svg viewBox="0 0 16 15" id="rating-star" xmlns="http://www.w3.org/2000/svg"><path d="M8.252.148l1.763 5.426h5.705l-4.615 3.353 1.763 5.426-4.616-3.354-4.615 3.354L5.4 8.927.784 5.574H6.49L8.252.148z"/></svg><svg viewBox="0 0 33 33" id="social-inst" xmlns="http://www.w3.org/2000/svg"><path d="M16.5 9.625a6.875 6.875 0 100 13.75 6.875 6.875 0 000-13.75zm0 11a4.125 4.125 0 110-8.25 4.125 4.125 0 010 8.25zM23.375 8.25a1.375 1.375 0 100 2.75 1.375 1.375 0 000-2.75zm6.793 3.08a10.327 10.327 0 00-.66-3.438 7.645 7.645 0 00-4.4-4.4 10.326 10.326 0 00-3.438-.66c-1.334-.082-1.774-.082-5.17-.082s-3.836 0-5.17.083a10.327 10.327 0 00-3.438.66 7.645 7.645 0 00-4.4 4.4 10.327 10.327 0 00-.66 3.437c-.082 1.348-.082 1.787-.082 5.17s0 3.823.083 5.17c.022 1.175.245 2.338.66 3.438a7.645 7.645 0 004.4 4.4c1.1.414 2.262.637 3.437.66 1.375 0 1.774.082 5.17.082s3.836 0 5.17-.082a10.327 10.327 0 003.438-.66 7.645 7.645 0 004.4-4.4c.414-1.1.637-2.263.66-3.438 0-1.375.082-1.788.082-5.17 0-3.383 0-3.822-.082-5.17zm-2.75 10.216a8.25 8.25 0 01-.482 2.558 4.677 4.677 0 01-1.127 1.719c-.48.498-1.068.88-1.719 1.113a7.91 7.91 0 01-2.571.495c-1.293 0-1.691.069-5.033.069h-5.019a8.247 8.247 0 01-2.57-.481 4.675 4.675 0 01-1.72-1.128 4.483 4.483 0 01-1.113-1.718 7.893 7.893 0 01-.495-2.558V11.523c.023-.879.19-1.747.495-2.572a4.538 4.538 0 011.114-1.705 4.483 4.483 0 011.718-1.114 7.906 7.906 0 012.571-.494C12.76 5.5 13.16 5.5 16.5 5.5h5.032c.883.022 1.757.19 2.585.495a4.537 4.537 0 011.706 1.114c.498.479.88 1.067 1.113 1.719.337.836.527 1.725.564 2.626 0 1.375.069 1.718.069 5.046 0 3.328-.069 3.726-.069 5.046h-.082z"/></svg><svg viewBox="0 0 33 33" id="social-tg" xmlns="http://www.w3.org/2000/svg"><path d="M16.492 2.75a13.75 13.75 0 100 27.5 13.75 13.75 0 000-27.5zm4.372 20.835a.969.969 0 01-1.378.483l-3.732-2.9-2.396 2.21a.412.412 0 01-.392.053l.46-4.109.014.012.01-.081s6.716-6.116 6.99-6.376c.277-.26.185-.316.185-.316.016-.317-.497 0-.497 0l-8.9 5.725-3.706-1.262s-.569-.204-.622-.653c-.057-.446.64-.688.64-.688L22.278 9.83s1.211-.54 1.211.354l-2.624 13.402z"/></svg><svg viewBox="0 0 33 33" id="social-vk" xmlns="http://www.w3.org/2000/svg"><path d="M20.725 2.75H12.29c-7.706 0-9.539 1.833-9.539 9.525v8.436c0 7.706 1.819 9.539 9.525 9.539h8.436c7.706 0 9.539-1.819 9.539-9.525V12.29c0-7.706-1.819-9.539-9.525-9.539zm4.226 19.622h-2.006c-.759 0-.988-.616-2.349-1.976-1.189-1.146-1.69-1.29-1.99-1.29-.416 0-.53.115-.53.688V21.6c0 .487-.158.773-1.433.773a7.826 7.826 0 01-6.116-3.666 15.987 15.987 0 01-3.165-6.646c0-.3.115-.573.688-.573h2.005c.515 0 .702.23.902.76.974 2.864 2.635 5.356 3.309 5.356.257 0 .372-.115.372-.76v-2.95c-.086-1.346-.802-1.46-.802-1.948a.495.495 0 01.516-.458h3.15c.43 0 .574.215.574.73V16.2c0 .43.186.573.315.573.257 0 .458-.143.93-.616a16.498 16.498 0 002.464-4.096.863.863 0 01.874-.573h2.005c.602 0 .73.3.602.73a25.036 25.036 0 01-2.693 4.627c-.215.33-.3.501 0 .888.2.3.902.888 1.375 1.446a8.92 8.92 0 011.69 2.35c.172.558-.115.844-.688.844z"/></svg><svg viewBox="0 0 27 27" id="social-whatsapp" xmlns="http://www.w3.org/2000/svg"><path d="M27 6.143a17.024 17.024 0 00-.135-1.742 5.792 5.792 0 00-.5-1.458 4.94 4.94 0 00-.958-1.35 5.28 5.28 0 00-1.35-.959 5.778 5.778 0 00-1.458-.486A13.784 13.784 0 0020.871 0H6.143C5.56.015 4.979.06 4.4.135c-.506.1-.996.269-1.458.5-.5.24-.957.565-1.35.958a5.279 5.279 0 00-.959 1.35c-.226.462-.39.953-.486 1.458C.063 4.973.013 5.551 0 6.129v14.729c.015.582.06 1.163.135 1.741.1.506.269.996.5 1.458.24.5.565.957.958 1.35a5.28 5.28 0 001.35.959c.462.226.953.39 1.458.486.572.085 1.15.135 1.728.148h14.729c.582-.015 1.163-.06 1.741-.135.506-.1.996-.269 1.458-.5a4.94 4.94 0 001.35-.958 5.28 5.28 0 00.959-1.35 5.78 5.78 0 00.486-1.458c.085-.572.135-1.15.148-1.728V6.143zM13.81 22.95a9.612 9.612 0 01-4.63-1.215l-5.13 1.35 1.35-5.022a9.599 9.599 0 01-1.35-4.833 9.693 9.693 0 119.76 9.72zm0-17.726A8.1 8.1 0 006.993 17.55l.189.31-.81 2.957 3.078-.837.297.175a8.1 8.1 0 004.05 1.121 8.1 8.1 0 000-16.2l.013.149zm4.725 11.503a2.456 2.456 0 01-1.633 1.147 3.145 3.145 0 01-1.512-.095 12.02 12.02 0 01-1.35-.512 10.8 10.8 0 01-4.131-3.646 4.698 4.698 0 01-.986-2.497 2.7 2.7 0 01.851-2.025.877.877 0 01.648-.297h.378c.148 0 .351 0 .54.418.189.419.688 1.675.756 1.796a.459.459 0 010 .418c-.06.147-.142.284-.243.405-.121.149-.256.325-.364.432-.109.108-.244.243-.109.486.368.62.822 1.184 1.35 1.675a6.75 6.75 0 001.944 1.201c.244.122.392.108.527 0s.607-.702.77-.945c.162-.243.323-.203.54-.122.216.082 1.417.662 1.66.784.243.121.392.175.459.283.059.353.026.716-.095 1.053v.04z"/></svg><svg viewBox="0 0 23 23" id="tg-icon" xmlns="http://www.w3.org/2000/svg"><path d="M11.493.25a11.25 11.25 0 100 22.5 11.25 11.25 0 000-22.5zm3.577 17.047a.794.794 0 01-1.127.395l-3.054-2.373-1.96 1.808a.336.336 0 01-.32.044l.375-3.362.012.01.008-.067s5.496-5.003 5.72-5.216c.226-.213.151-.26.151-.26.013-.259-.406 0-.406 0l-7.282 4.685-3.032-1.032s-.466-.167-.51-.535c-.046-.364.525-.562.525-.562l12.056-4.79s.992-.442.992.29L15.07 17.297z"/></svg><svg viewBox="0 0 26 26" id="time-icon" xmlns="http://www.w3.org/2000/svg"><path d="M13.562 25.456h-1.598c-.312-.04-.625-.073-.932-.113-2.363-.339-4.48-1.242-6.325-2.756C2.277 20.588.766 18.045.2 14.95.113 14.48.067 14 0 13.53v-1.595c.013-.08.033-.159.047-.239.08-.531.12-1.069.233-1.594.732-3.34 2.523-5.99 5.353-7.908C8.416.3 11.512-.35 14.834.174a12.24 12.24 0 016.325 2.989c2.783 2.47 4.255 5.585 4.361 9.304.067 2.403-.52 4.668-1.77 6.726-2.018 3.314-4.954 5.346-8.783 6.07-.473.086-.939.133-1.405.193zm10.26-12.717c.014-6.07-4.96-11.037-11.059-11.044-6.078 0-11.039 4.934-11.065 11.01-.027 6.063 4.94 11.037 11.045 11.057 6.086.02 11.066-4.94 11.08-11.023z"/><path d="M11.911 9.332v-3.38a.83.83 0 01.753-.843.836.836 0 01.912.637c.026.113.026.233.026.346 0 1.999.007 3.99-.006 5.99 0 .185.06.298.206.411 1.239.976 2.464 1.966 3.702 2.949.286.232.406.524.333.876-.06.306-.26.518-.56.618-.326.106-.612.013-.878-.2-.766-.617-1.545-1.235-2.31-1.845-.6-.479-1.192-.957-1.792-1.428a.976.976 0 01-.392-.817c.013-1.116.006-2.218.006-3.314z"/></svg><svg viewBox="0 0 42 42" id="union-icon" xmlns="http://www.w3.org/2000/svg"><path fill-rule="evenodd" clip-rule="evenodd" d="M21.031 3.505a17.138 17.138 0 1016.744 17.133h3.5a20.638 20.638 0 11-7.4-15.834l3.461-2.82-.673 8.148-8.116-.987 2.553-2.08a17.138 17.138 0 00-10.069-3.56zm-1.913 20.453h-4.06c1.493-1.734 2.5-3.074 3.02-4.02.52-.947.78-1.847.78-2.7 0-.8-.187-1.52-.56-2.16a3.766 3.766 0 00-1.58-1.48c-.68-.36-1.447-.54-2.3-.54-1.32 0-2.38.393-3.18 1.18-.8.786-1.2 1.8-1.2 3.04v.28h2.86v-.24c0-.48.14-.86.42-1.14.293-.294.673-.44 1.14-.44.453 0 .82.14 1.1.42.28.28.42.653.42 1.12 0 .48-.147.993-.44 1.54-.28.546-.834 1.333-1.66 2.36-.814 1.013-2.174 2.626-4.08 4.84v.62h9.32v-2.68zm11.537.12v-2.48h-1.16v-3.18h-2.14l-.46 3.18h-2.8l3.54-8.26h-2.82l-4.38 10.24v.5h6.38v2.56h2.68v-2.56h1.16z"/></svg><svg viewBox="0 0 23 22" id="whatapp-icon" xmlns="http://www.w3.org/2000/svg"><path d="M23 5.005a13.273 13.273 0 00-.115-1.419 4.584 4.584 0 00-.426-1.188 4.034 4.034 0 00-.816-1.1 4.5 4.5 0 00-1.15-.781A5.078 5.078 0 0019.25.121c-.488-.07-.98-.11-1.472-.121H5.232c-.496.012-.99.05-1.483.11a5.087 5.087 0 00-1.242.407c-.427.197-.815.46-1.15.781a4.308 4.308 0 00-.817 1.1 4.568 4.568 0 00-.414 1.188C.053 4.052.011 4.523 0 4.994v12.001c.013.475.051.948.115 1.419.086.412.229.812.425 1.188.206.408.482.78.817 1.1.338.317.726.58 1.15.781.394.184.811.317 1.242.396.487.07.979.11 1.472.121h12.546c.497-.012.992-.05 1.484-.11a5.085 5.085 0 001.242-.407 4.22 4.22 0 001.15-.781 4.31 4.31 0 00.816-1.1c.193-.377.332-.776.414-1.188.073-.466.116-.937.127-1.408V5.005zM11.764 18.7a8.48 8.48 0 01-3.944-.99l-4.37 1.1 1.15-4.092a7.567 7.567 0 01-1.15-3.938 7.657 7.657 0 011.399-4.376 8.19 8.19 0 013.7-2.9 8.606 8.606 0 014.762-.45 8.381 8.381 0 014.222 2.152 7.8 7.8 0 012.267 4.03 7.578 7.578 0 01-.45 4.556 7.98 7.98 0 01-3.016 3.552 8.523 8.523 0 01-4.57 1.356zm0-14.443a7.137 7.137 0 00-3.46.934 6.743 6.743 0 00-2.499 2.471 6.373 6.373 0 00-.86 3.339A6.391 6.391 0 005.957 14.3l.16.253-.69 2.409 2.623-.682.253.143a7.062 7.062 0 008.329-1.02c1.294-1.238 2.02-2.917 2.02-4.667s-.726-3.43-2.02-4.667a7.062 7.062 0 00-4.88-1.933l.012.121zm4.025 9.372a2.04 2.04 0 01-.592.609c-.24.16-.512.272-.8.326a2.79 2.79 0 01-1.287-.077 10.525 10.525 0 01-1.15-.418 9.084 9.084 0 01-3.52-2.97 3.736 3.736 0 01-.839-2.035 2.117 2.117 0 01.18-.899c.124-.284.31-.54.545-.751a.776.776 0 01.552-.242H9.2c.126 0 .299 0 .46.341.16.341.586 1.364.644 1.463a.362.362 0 010 .341c-.051.12-.12.23-.207.33-.104.121-.219.264-.31.352-.093.088-.208.198-.093.396.313.505.7.965 1.15 1.364.49.414 1.05.745 1.656.979.207.099.334.088.449 0 .115-.088.517-.572.655-.77.138-.198.276-.165.46-.099s1.208.539 1.415.638c.207.099.333.143.39.231.05.288.023.583-.08.858v.033z"/></svg></svg>